<svg width="300" height="300" viewBox="0 0 300 300" fill="none" xmlns="http://www.w3.org/2000/svg">
<rect width="300" height="300" rx="50" fill="#484D90"/>
<path d="M64.8 166V137.2H70.32L82.84 156.4V137.2H88.36V166H82.84L70.32 146.8V166H64.8ZM101.981 166.64C100.287 166.64 98.9073 166.353 97.8406 165.78C96.774 165.207 95.9406 164.48 95.3406 163.6C94.754 162.72 94.334 161.807 94.0806 160.86C93.8273 159.9 93.674 159.027 93.6206 158.24C93.5673 157.453 93.5406 156.88 93.5406 156.52V144.4H99.0606V154.6C99.0606 155.093 99.0873 155.727 99.1406 156.5C99.194 157.26 99.3606 158.027 99.6406 158.8C99.9206 159.573 100.374 160.22 101.001 160.74C101.641 161.26 102.541 161.52 103.701 161.52C104.167 161.52 104.667 161.447 105.201 161.3C105.734 161.153 106.234 160.873 106.701 160.46C107.167 160.033 107.547 159.413 107.841 158.6C108.147 157.773 108.301 156.693 108.301 155.36L111.421 156.84C111.421 158.547 111.074 160.147 110.381 161.64C109.687 163.133 108.641 164.34 107.241 165.26C105.854 166.18 104.101 166.64 101.981 166.64ZM108.981 166V158.84H108.301V144.4H113.781V166H108.981ZM119.77 166V137.2H125.21V160.92H137.61V166H119.77ZM141.411 141.4V136.6H146.851V141.4H141.411ZM141.411 166V144.4H146.851V166H141.411ZM167.567 166V155.8C167.567 155.307 167.54 154.68 167.487 153.92C167.434 153.147 167.267 152.373 166.987 151.6C166.707 150.827 166.247 150.18 165.607 149.66C164.98 149.14 164.087 148.88 162.927 148.88C162.46 148.88 161.96 148.953 161.427 149.1C160.894 149.247 160.394 149.533 159.927 149.96C159.46 150.373 159.074 150.987 158.767 151.8C158.474 152.613 158.327 153.693 158.327 155.04L155.207 153.56C155.207 151.853 155.554 150.253 156.247 148.76C156.94 147.267 157.98 146.06 159.367 145.14C160.767 144.22 162.527 143.76 164.647 143.76C166.34 143.76 167.72 144.047 168.787 144.62C169.854 145.193 170.68 145.92 171.267 146.8C171.867 147.68 172.294 148.6 172.547 149.56C172.8 150.507 172.954 151.373 173.007 152.16C173.06 152.947 173.087 153.52 173.087 153.88V166H167.567ZM152.807 166V144.4H157.647V151.56H158.327V166H152.807ZM187.517 176.2C186.29 176.2 185.123 176 184.017 175.6C182.91 175.213 181.917 174.667 181.037 173.96C180.17 173.267 179.463 172.453 178.917 171.52L183.957 169.08C184.303 169.72 184.797 170.207 185.437 170.54C186.09 170.873 186.797 171.04 187.557 171.04C188.37 171.04 189.137 170.9 189.857 170.62C190.577 170.353 191.15 169.947 191.577 169.4C192.017 168.867 192.223 168.2 192.197 167.4V161.12H192.877V144.4H197.637V167.48C197.637 168.013 197.61 168.513 197.557 168.98C197.517 169.46 197.437 169.933 197.317 170.4C196.97 171.72 196.323 172.807 195.377 173.66C194.443 174.513 193.297 175.147 191.937 175.56C190.577 175.987 189.103 176.2 187.517 176.2ZM187.037 166.6C185.05 166.6 183.31 166.1 181.817 165.1C180.323 164.1 179.157 162.74 178.317 161.02C177.49 159.3 177.077 157.36 177.077 155.2C177.077 153 177.497 151.047 178.337 149.34C179.19 147.62 180.383 146.267 181.917 145.28C183.45 144.293 185.25 143.8 187.317 143.8C189.37 143.8 191.097 144.3 192.497 145.3C193.897 146.3 194.957 147.66 195.677 149.38C196.397 151.1 196.757 153.04 196.757 155.2C196.757 157.36 196.39 159.3 195.657 161.02C194.937 162.74 193.857 164.1 192.417 165.1C190.977 166.1 189.183 166.6 187.037 166.6ZM187.917 161.76C189.13 161.76 190.097 161.487 190.817 160.94C191.55 160.393 192.077 159.627 192.397 158.64C192.717 157.653 192.877 156.507 192.877 155.2C192.877 153.893 192.717 152.747 192.397 151.76C192.077 150.773 191.563 150.007 190.857 149.46C190.163 148.913 189.25 148.64 188.117 148.64C186.903 148.64 185.903 148.94 185.117 149.54C184.343 150.127 183.77 150.92 183.397 151.92C183.023 152.907 182.837 154 182.837 155.2C182.837 156.413 183.017 157.52 183.377 158.52C183.737 159.507 184.29 160.293 185.037 160.88C185.783 161.467 186.743 161.76 187.917 161.76ZM212.958 166.6C210.784 166.6 208.878 166.113 207.238 165.14C205.598 164.167 204.318 162.827 203.398 161.12C202.491 159.4 202.038 157.427 202.038 155.2C202.038 152.947 202.504 150.967 203.438 149.26C204.371 147.54 205.658 146.2 207.298 145.24C208.938 144.28 210.824 143.8 212.958 143.8C215.131 143.8 217.038 144.287 218.678 145.26C220.331 146.233 221.618 147.58 222.538 149.3C223.458 151.007 223.918 152.973 223.918 155.2C223.918 157.44 223.451 159.42 222.518 161.14C221.598 162.847 220.311 164.187 218.658 165.16C217.018 166.12 215.118 166.6 212.958 166.6ZM212.958 161.52C214.704 161.52 216.004 160.933 216.858 159.76C217.724 158.573 218.158 157.053 218.158 155.2C218.158 153.28 217.718 151.747 216.838 150.6C215.971 149.453 214.678 148.88 212.958 148.88C211.771 148.88 210.798 149.147 210.038 149.68C209.278 150.213 208.711 150.953 208.338 151.9C207.978 152.847 207.798 153.947 207.798 155.2C207.798 157.133 208.231 158.673 209.098 159.82C209.978 160.953 211.264 161.52 212.958 161.52ZM228.414 166V160.56H233.854V166H228.414Z" fill="white"/>
</svg>
